<svg width="32" height="33" viewBox="0 0 32 33" fill="none" xmlns="http://www.w3.org/2000/svg">
<path d="M27.3333 21.4271H10.6667M10.6667 21.4271V4.76042M10.6667 21.4271L4.66667 27.4271M4.66667 10.7604H21.3333M21.3333 10.7604V27.4271M21.3333 10.7604L27.3333 4.76042M28 20.5434V5.16042C28 4.78705 28 4.60036 27.9273 4.45776C27.8634 4.33231 27.7614 4.23033 27.636 4.16641C27.4934 4.09375 27.3067 4.09375 26.9333 4.09375H11.5503C11.2242 4.09375 11.0611 4.09375 10.9077 4.13059C10.7716 4.16325 10.6416 4.21712 10.5223 4.29023C10.3877 4.37269 10.2724 4.48799 10.0418 4.71859L4.62484 10.1356C4.39424 10.3662 4.27894 10.4815 4.19648 10.616C4.12337 10.7353 4.0695 10.8654 4.03684 11.0014C4 11.1549 4 11.318 4 11.6441V27.0271C4 27.4005 4 27.5871 4.07266 27.7297C4.13658 27.8552 4.23856 27.9572 4.36401 28.0211C4.50661 28.0938 4.6933 28.0938 5.06667 28.0938H20.4497C20.7758 28.0938 20.9389 28.0938 21.0923 28.0569C21.2284 28.0243 21.3584 27.9704 21.4777 27.8973C21.6123 27.8148 21.7276 27.6995 21.9582 27.4689L27.3752 22.0519C27.6058 21.8213 27.7211 21.706 27.8035 21.5715C27.8766 21.4522 27.9305 21.3221 27.9632 21.1861C28 21.0326 28 20.8696 28 20.5434Z" stroke="#5051F9" stroke-width="2.35469" stroke-linecap="round" stroke-linejoin="round"/>
</svg>
